<?xml version="1.0" encoding="UTF-8"?>
<svg id="Main_color" xmlns="http://www.w3.org/2000/svg" version="1.1" viewBox="0 0 854.725 164.263">
  <!-- Generator: Adobe Illustrator 29.5.1, SVG Export Plug-In . SVG Version: 2.1.0 Build 141)  -->
  <defs>
    <style>
      .st0 {
        fill: #1d1d1d;
      }
    </style>
  </defs>
  <g>
    <path class="st0" d="M311.009,80.007c0,3.651-.887,6.972-2.659,9.96-1.773,2.99-4.167,5.385-7.182,7.183-3.016,1.8-6.349,2.698-10,2.698h-31.904v-7.856h31.904c2.222,0,4.232-.542,6.032-1.627,1.798-1.084,3.227-2.54,4.286-4.365,1.058-1.825,1.587-3.822,1.587-5.992,0-2.222-.529-4.232-1.587-6.031-1.059-1.799-2.488-3.227-4.286-4.286-1.799-1.058-3.81-1.587-6.032-1.587h-36.349v47.619h-7.937v-55.555h44.285c3.651,0,6.984.887,10,2.659,3.016,1.772,5.409,4.166,7.182,7.182,1.772,3.017,2.659,6.35,2.659,10Z"/>
    <path class="st0" d="M391.404,115.721h-10.714l-16.667-15.874h-24.365v-7.856h31.904c2.222,0,4.232-.542,6.032-1.627,1.798-1.084,3.227-2.54,4.286-4.365,1.058-1.825,1.587-3.822,1.587-5.992,0-2.222-.529-4.232-1.587-6.031-1.059-1.799-2.488-3.227-4.286-4.286-1.799-1.058-3.81-1.587-6.032-1.587h-36.349v47.619h-7.937v-55.555h44.285c3.651,0,6.984.887,10,2.659,3.016,1.772,5.409,4.166,7.182,7.182,1.772,3.017,2.659,6.35,2.659,10,0,3.281-.728,6.323-2.183,9.127-1.456,2.805-3.44,5.119-5.952,6.944-2.514,1.825-5.357,3.004-8.532,3.531l16.667,16.112Z"/>
    <path class="st0" d="M475.846,87.943c0,3.862-.609,7.474-1.825,10.833-1.218,3.36-2.95,6.31-5.198,8.85-2.25,2.539-4.935,4.523-8.056,5.952-3.123,1.429-6.587,2.143-10.396,2.143h-18.492c-3.863,0-7.355-.714-10.476-2.143-3.123-1.429-5.807-3.413-8.056-5.952-2.25-2.54-3.982-5.49-5.198-8.85-1.218-3.359-1.825-6.971-1.825-10.833,0-3.81.607-7.394,1.825-10.754,1.216-3.359,2.949-6.321,5.198-8.889,2.249-2.565,4.933-4.563,8.056-5.992,3.121-1.429,6.613-2.143,10.476-2.143h18.492c3.81,0,7.274.714,10.396,2.143,3.121,1.429,5.806,3.427,8.056,5.992,2.248,2.567,3.98,5.529,5.198,8.889,1.216,3.36,1.825,6.944,1.825,10.754ZM467.909,87.943c0-3.65-.702-6.984-2.103-10-1.402-3.016-3.413-5.409-6.032-7.183-2.619-1.771-5.754-2.658-9.404-2.658h-18.492c-3.651,0-6.786.887-9.405,2.658-2.619,1.773-4.643,4.167-6.071,7.183s-2.143,6.35-2.143,10,.714,6.972,2.143,9.96c1.429,2.99,3.452,5.385,6.071,7.183,2.619,1.8,5.754,2.698,9.405,2.698h18.492c3.65,0,6.786-.898,9.404-2.698,2.619-1.798,4.629-4.193,6.032-7.183,1.401-2.988,2.103-6.31,2.103-9.96Z"/>
    <path class="st0" d="M549.574,87.943c0,3.862-.714,7.474-2.143,10.833-1.428,3.36-3.413,6.31-5.952,8.85-2.54,2.539-5.49,4.523-8.849,5.952-3.36,1.429-6.972,2.143-10.833,2.143h-32.936v-7.937h32.936c3.65,0,6.984-.898,10-2.698,3.016-1.798,5.409-4.193,7.183-7.183,1.772-2.988,2.659-6.31,2.659-9.96v-19.841h-52.777v-7.937h60.713v27.777Z"/>
    <path class="st0" d="M627.35,115.721h-57.459v-55.555h57.459v7.937h-49.523v39.682h49.523v7.937ZM620.604,91.911h-38.809v-7.936h38.809v7.936Z"/>
    <path class="st0" d="M702.19,115.721h-35.793c-3.862,0-7.354-.714-10.476-2.143-3.123-1.429-5.808-3.413-8.056-5.952-2.249-2.54-3.981-5.49-5.198-8.85-1.218-3.359-1.825-6.971-1.825-10.833,0-3.81.607-7.394,1.825-10.754,1.217-3.359,2.949-6.321,5.198-8.889,2.248-2.565,4.933-4.563,8.056-5.992,3.121-1.429,6.613-2.143,10.476-2.143h35.793v7.937h-35.793c-3.65,0-6.785.887-9.404,2.658-2.619,1.773-4.643,4.167-6.071,7.183s-2.143,6.35-2.143,10,.714,6.972,2.143,9.96c1.429,2.99,3.452,5.385,6.071,7.183,2.619,1.8,5.754,2.698,9.404,2.698h35.793v7.937Z"/>
    <path class="st0" d="M749.887,115.721h-7.937v-47.619h-28.095v-7.937h64.126v7.937h-28.095v47.619Z"/>
    <path class="st0" d="M854.725,99.848c0,2.911-.714,5.57-2.143,7.977-1.429,2.408-3.333,4.325-5.714,5.754s-5.054,2.143-8.017,2.143h-48.253v-7.937h48.253c2.223,0,4.1-.78,5.636-2.341,1.533-1.561,2.301-3.426,2.301-5.596s-.768-4.033-2.301-5.595c-1.536-1.561-3.413-2.342-5.636-2.342h-32.38c-2.91,0-5.569-.714-7.977-2.143-2.408-1.429-4.325-3.346-5.754-5.754-1.428-2.407-2.143-5.065-2.143-7.976s.715-5.568,2.143-7.977c1.429-2.406,3.346-4.325,5.754-5.754,2.407-1.429,5.066-2.143,7.977-2.143h44.285v7.937h-44.285c-2.17,0-4.035.781-5.596,2.341-1.561,1.562-2.341,3.427-2.341,5.596s.78,4.035,2.341,5.595c1.561,1.562,3.426,2.342,5.596,2.342h32.38c2.963,0,5.636.714,8.017,2.143s4.285,3.347,5.714,5.754c1.429,2.408,2.143,5.066,2.143,7.976Z"/>
  </g>
  <g>
    <path class="st0" d="M94.667,128.984l-29.046-34.843c-.628-.753-1.639-1.199-2.716-1.197l-22.254.048v-15.93c0-2.337-2.641-3.696-4.542-2.337L1.202,99.666c-.755.539-1.202,1.41-1.202,2.337v58.455c0,1.586,1.286,2.872,2.872,2.872h34.906c1.586,0,2.872-1.286,2.872-2.872v-26.816l51.317-.111c2.712-.006,4.281-2.651,2.699-4.548Z"/>
    <path class="st0" d="M50.15,1.03c-.536-.613-1.31-.965-2.124-.966L2.836,0C.406-.003-.895,2.857.704,4.686l136.679,156.333c.545.623,1.332.981,2.16.982l48.338.04c2.444.002,3.738-2.889,2.108-4.71L50.15,1.03Z"/>
    <path class="st0" d="M188.917,9.927h-22.453c-.631,0-1.219-.286-1.563-.761l-4.904-6.324c-.81-1.116.081-2.595,1.563-2.595h22.68c.607,0,1.173.276,1.504.733l4.677,6.449c.779,1.074-.078,2.498-1.504,2.498Z"/>
    <path class="st0" d="M161.559,30.965h22.643c.631,0,1.219-.286,1.563-.761l4.656-6.421c.779-1.074-.078-2.498-1.504-2.498h-22.772c-.631,0-1.219.286-1.563.761l-4.586,6.324c-.81,1.116.081,2.595,1.563,2.595Z"/>
    <path class="st0" d="M189.119,11.949h-17.149c-.447,0-.878.16-1.207.448l-2.217,1.941c-.776.679-.767,1.848.02,2.516l2.327,1.978c.327.278.75.431,1.188.431h17.115c.85,0,1.534-.663,1.521-1.472l-.076-4.419c-.014-.79-.69-1.424-1.521-1.424Z"/>
  </g>
</svg>