<svg width="24" height="24" viewBox="0 0 24 24" fill="none" xmlns="http://www.w3.org/2000/svg">
<mask id="mask0_445_1419" style="mask-type:alpha" maskUnits="userSpaceOnUse" x="0" y="0" width="24" height="24">
<rect width="24" height="24" fill="#D9D9D9"/>
</mask>
<g mask="url(#mask0_445_1419)">
<path d="M5.8 17.673C6.79867 16.9847 7.79225 16.4511 8.78075 16.0723C9.76925 15.6933 10.8423 15.5038 12 15.5038C13.1577 15.5038 14.2333 15.6933 15.227 16.0723C16.2205 16.4511 17.2166 16.9847 18.2153 17.673C18.9422 16.8308 19.4823 15.9415 19.8355 15.005C20.1887 14.0685 20.3652 13.0668 20.3652 12C20.3652 9.641 19.5608 7.657 17.952 6.048C16.343 4.43917 14.359 3.63475 12 3.63475C9.641 3.63475 7.657 4.43917 6.048 6.048C4.43917 7.657 3.63475 9.641 3.63475 12C3.63475 13.0668 3.81392 14.0685 4.17225 15.005C4.53058 15.9415 5.07317 16.8308 5.8 17.673ZM11.9945 12.5673C11.0957 12.5673 10.3395 12.2587 9.726 11.6418C9.1125 11.0246 8.80575 10.2666 8.80575 9.36775C8.80575 8.46875 9.11433 7.7125 9.7315 7.099C10.3485 6.4855 11.1065 6.17875 12.0055 6.17875C12.9043 6.17875 13.6605 6.48733 14.274 7.1045C14.8875 7.7215 15.1943 8.4795 15.1943 9.3785C15.1943 10.2775 14.8857 11.0337 14.2685 11.647C13.6515 12.2605 12.8935 12.5673 11.9945 12.5673ZM12.0118 21.5C10.6949 21.5 9.45958 21.2519 8.30575 20.7558C7.15175 20.2596 6.14375 19.5798 5.28175 18.7163C4.41958 17.8529 3.74042 16.8469 3.24425 15.6982C2.74808 14.5496 2.5 13.3162 2.5 11.9983C2.5 10.6803 2.74808 9.4475 3.24425 8.3C3.74042 7.1525 4.42025 6.14708 5.28375 5.28375C6.14708 4.42025 7.15308 3.74042 8.30175 3.24425C9.45042 2.74808 10.6838 2.5 12.0017 2.5C13.3197 2.5 14.5525 2.74808 15.7 3.24425C16.8475 3.74042 17.8529 4.42025 18.7163 5.28375C19.5798 6.14708 20.2596 7.15275 20.7558 8.30075C21.2519 9.44875 21.5 10.6779 21.5 11.9882C21.5 13.3051 21.2519 14.5404 20.7558 15.6943C20.2596 16.8483 19.5798 17.8563 18.7163 18.7183C17.8529 19.5804 16.8472 20.2596 15.6992 20.7558C14.5512 21.2519 13.3221 21.5 12.0118 21.5ZM12 20.3652C12.9295 20.3652 13.8462 20.2175 14.75 19.922C15.6538 19.6265 16.5051 19.1487 17.3038 18.4885C16.5051 17.9013 15.6593 17.4462 14.7663 17.123C13.8734 16.8 12.9513 16.6385 12 16.6385C11.0487 16.6385 10.1249 16.7984 9.22875 17.1182C8.33258 17.4381 7.49158 17.8948 6.70575 18.4885C7.49808 19.1487 8.34617 19.6265 9.25 19.922C10.1538 20.2175 11.0705 20.3652 12 20.3652ZM12.0013 11.4327C12.5991 11.4327 13.0916 11.2387 13.4788 10.8505C13.8661 10.4625 14.0598 9.96958 14.0598 9.37175C14.0598 8.77392 13.8657 8.28142 13.4775 7.89425C13.0895 7.50708 12.5966 7.3135 11.9988 7.3135C11.4009 7.3135 10.9084 7.5075 10.5213 7.8955C10.1339 8.28367 9.94025 8.77667 9.94025 9.3745C9.94025 9.97233 10.1343 10.4648 10.5225 10.852C10.9105 11.2392 11.4034 11.4327 12.0013 11.4327Z" fill="#1D1D1D"/>
</g>
</svg>
