<svg width="48" height="48" viewBox="0 0 48 48" fill="none" xmlns="http://www.w3.org/2000/svg">
<mask id="mask0_58_1052" style="mask-type:alpha" maskUnits="userSpaceOnUse" x="0" y="0" width="48" height="48">
<rect width="48" height="48" fill="#D9D9D9"/>
</mask>
<g mask="url(#mask0_58_1052)">
<path d="M22 40.623L18.6845 37.573C15.6052 34.727 13.059 32.3059 11.046 30.3095C9.03333 28.3135 7.42767 26.5329 6.229 24.9675C5.03033 23.4019 4.1925 21.9677 3.7155 20.665C3.2385 19.362 3 17.9929 3 16.5575C3 13.8142 3.925 11.4905 5.775 9.58652C7.625 7.68285 9.9115 6.73102 12.6345 6.73102C14.4962 6.73102 16.2225 7.19502 17.8135 8.12302C19.4045 9.05135 20.8 10.4104 22 12.2C23.3487 10.336 24.796 8.95852 26.342 8.06752C27.8877 7.17652 29.5625 6.73102 31.3665 6.73102C33.8465 6.73102 35.9503 7.58352 37.678 9.28852C39.4053 10.9935 40.4242 13.0692 40.7345 15.5155H38.5345C38.2988 13.6692 37.5398 12.1217 36.2575 10.873C34.9755 9.62435 33.3448 9.00002 31.3655 9.00002C29.6912 9.00002 28.1335 9.50068 26.6925 10.502C25.2515 11.5034 24.0232 12.9924 23.0075 14.969H20.9425C19.9475 13.0127 18.7315 11.5289 17.2945 10.5175C15.8578 9.50585 14.3045 9.00002 12.6345 9.00002C10.4988 9.00002 8.73733 9.72252 7.35 11.1675C5.963 12.6122 5.2695 14.4089 5.2695 16.5575C5.2695 17.8192 5.52133 19.057 6.025 20.271C6.529 21.4854 7.40783 22.8737 8.6615 24.436C9.9155 25.9987 11.6283 27.8257 13.8 29.917C15.9717 32.0084 18.705 34.5745 22 37.6155C23.0793 36.6232 24.0813 35.7167 25.006 34.896C25.9303 34.0757 26.8463 33.259 27.754 32.446L28.0085 32.693C28.1782 32.8574 28.36 33.0365 28.554 33.2305C28.7477 33.4249 28.9293 33.6042 29.099 33.7685L29.354 34.0155C28.4667 34.8155 27.5588 35.6225 26.6305 36.4365C25.7025 37.2505 24.6885 38.164 23.5885 39.177L22 40.623ZM36.096 33.5V27.1345H29.7305V24.8655H36.096V18.5H38.3655V24.8655H44.7305V27.1345H38.3655V33.5H36.096Z" fill="#1D1D1D"/>
</g>
</svg>
