<svg width="32" height="32" viewBox="0 0 32 32" fill="none" xmlns="http://www.w3.org/2000/svg">
<mask id="mask0_56_879" style="mask-type:alpha" maskUnits="userSpaceOnUse" x="0" y="0" width="32" height="32">
<rect width="32" height="32" fill="#D9D9D9"/>
</mask>
<g mask="url(#mask0_56_879)">
<path d="M15.2437 22.3334H16.7564V16.7564H22.3334V15.2437H16.7564V9.66669H15.2437V15.2437H9.66675V16.7564H15.2437V22.3334ZM6.58975 27.3334C6.06686 27.3334 5.61564 27.1436 5.23608 26.764C4.85653 26.3845 4.66675 25.9332 4.66675 25.4104V6.58969C4.66675 6.0668 4.85653 5.61558 5.23608 5.23602C5.61564 4.85647 6.06686 4.66669 6.58975 4.66669H25.4104C25.9333 4.66669 26.3845 4.85647 26.7641 5.23602C27.1436 5.61558 27.3334 6.0668 27.3334 6.58969V25.4104C27.3334 25.9332 27.1436 26.3845 26.7641 26.764C26.3845 27.1436 25.9333 27.3334 25.4104 27.3334H6.58975ZM6.58975 25.8204H25.4104C25.5129 25.8204 25.6069 25.7777 25.6924 25.6924C25.7777 25.6068 25.8204 25.5128 25.8204 25.4104V6.58969C25.8204 6.48724 25.7777 6.39324 25.6924 6.30769C25.6069 6.22235 25.5129 6.17969 25.4104 6.17969H6.58975C6.4873 6.17969 6.3933 6.22235 6.30775 6.30769C6.22241 6.39324 6.17975 6.48724 6.17975 6.58969V25.4104C6.17975 25.5128 6.22241 25.6068 6.30775 25.6924C6.3933 25.7777 6.4873 25.8204 6.58975 25.8204Z" fill="#1D1D1D"/>
</g>
</svg>
