<svg width="25" height="24" viewBox="0 0 25 24" fill="none" xmlns="http://www.w3.org/2000/svg">
<mask id="mask0_163_2396" style="mask-type:alpha" maskUnits="userSpaceOnUse" x="0" y="0" width="25" height="24">
<rect x="0.5" width="24" height="24" fill="#D9D9D9"/>
</mask>
<g mask="url(#mask0_163_2396)">
<path d="M7.45775 20.5C7.06442 20.5 6.72567 20.3579 6.4415 20.0738C6.1575 19.7896 6.0155 19.4509 6.0155 19.0578V5.45201H5V4.31726H9.277V3.61551H15.723V4.31726H20V5.45201H18.9845V19.0578C18.9845 19.4499 18.8422 19.7883 18.5575 20.073C18.2728 20.3577 17.9344 20.5 17.5423 20.5H7.45775ZM17.85 5.45201H7.15V19.0578C7.15 19.1474 7.18042 19.2211 7.24125 19.2788C7.30225 19.3364 7.37442 19.3653 7.45775 19.3653H17.5423C17.6193 19.3653 17.6898 19.3333 17.7538 19.2693C17.8179 19.2051 17.85 19.1346 17.85 19.0578V5.45201ZM10.0308 17.2538H11.1655V7.53851H10.0308V17.2538ZM13.8345 17.2538H14.9693V7.53851H13.8345V17.2538Z" fill="#CC1501"/>
</g>
</svg>
