<svg width="38" height="38" viewBox="0 0 38 38" fill="none" xmlns="http://www.w3.org/2000/svg">
<mask id="mask0_665_875" style="mask-type:alpha" maskUnits="userSpaceOnUse" x="0" y="0" width="38" height="38">
<rect width="38" height="38" fill="#D9D9D9"/>
</mask>
<g mask="url(#mask0_665_875)">
<path d="M11.0164 32.4584C10.3937 32.4584 9.85731 32.2334 9.40738 31.7835C8.95771 31.3336 8.73287 30.7974 8.73287 30.1748V8.6324H7.125V6.83571H13.8969V5.72461H24.1031V6.83571H30.875V8.6324H29.2671V30.1748C29.2671 30.7958 29.0418 31.3316 28.591 31.7823C28.1403 32.233 27.6045 32.4584 26.9836 32.4584H11.0164ZM27.4708 8.6324H10.5292V30.1748C10.5292 30.3168 10.5773 30.4335 10.6736 30.5248C10.7702 30.6161 10.8845 30.6617 11.0164 30.6617H26.9836C27.1055 30.6617 27.2171 30.611 27.3184 30.5097C27.42 30.4081 27.4708 30.2965 27.4708 30.1748V8.6324ZM15.0904 27.3185H16.887V11.936H15.0904V27.3185ZM21.113 27.3185H22.9096V11.936H21.113V27.3185Z" fill="#CC1501"/>
</g>
</svg>
