<svg width="30" height="30" viewBox="0 0 30 30" fill="none" xmlns="http://www.w3.org/2000/svg">
<mask id="mask0_665_872" style="mask-type:alpha" maskUnits="userSpaceOnUse" x="0" y="0" width="30" height="30">
<rect width="30" height="30" fill="#D9D9D9"/>
</mask>
<g mask="url(#mask0_665_872)">
<path d="M2.5 29.9999V26.8461H27.5V29.9999H2.5ZM7.19563 20.8083H8.55531L20.1353 9.23457L19.4553 8.54238L18.7694 7.86863L7.19563 19.4405V20.8083ZM5.625 22.3789V18.7949L20.3391 4.08738C20.4976 3.92863 20.6743 3.8127 20.8691 3.73957C21.0636 3.66645 21.2613 3.62988 21.4619 3.62988C21.6569 3.62988 21.8533 3.66645 22.0513 3.73957C22.249 3.8127 22.425 3.93072 22.5794 4.09363L23.9166 5.42957C24.0743 5.57957 24.1921 5.75374 24.27 5.95207C24.3479 6.15061 24.3869 6.35051 24.3869 6.55176C24.3869 6.74572 24.3473 6.94072 24.2681 7.13676C24.189 7.3328 24.0718 7.51103 23.9166 7.67145L9.20094 22.3789H5.625ZM20.1353 9.23457L19.4553 8.54238L18.7694 7.86863L20.1353 9.23457Z" fill="#1C1B1F"/>
</g>
</svg>
