<svg width="32" height="32" viewBox="0 0 32 32" fill="none" xmlns="http://www.w3.org/2000/svg">
<g id="email_icon">
<mask id="mask0_576_110" style="mask-type:alpha" maskUnits="userSpaceOnUse" x="0" y="0" width="32" height="32">
<rect id="Bounding box" width="32" height="32" fill="#D9D9D9"/>
</mask>
<g mask="url(#mask0_576_110)">
<path id="drafts" d="M16.0002 2.1283L27.9308 9.2463C28.2062 9.40341 28.3976 9.61319 28.5052 9.87563C28.6129 10.1381 28.6668 10.3941 28.6668 10.6436V25.4103C28.6668 25.9332 28.4771 26.3844 28.0975 26.764C27.7179 27.1435 27.2667 27.3333 26.7438 27.3333H5.2565C4.73361 27.3333 4.28238 27.1435 3.90283 26.764C3.52327 26.3844 3.3335 25.9332 3.3335 25.4103V10.6436C3.3335 10.3941 3.39083 10.1381 3.5055 9.87563C3.61994 9.61319 3.80794 9.40341 4.0695 9.2463L16.0002 2.1283ZM16.0002 16.8666L26.9822 10.4026L16.0002 3.8103L5.01816 10.4026L16.0002 16.8666ZM16.0002 18.5486L4.8465 11.9716V25.4103C4.8465 25.5299 4.88494 25.6281 4.96183 25.705C5.03872 25.7819 5.13694 25.8203 5.2565 25.8203H26.7438C26.8634 25.8203 26.9616 25.7819 27.0385 25.705C27.1154 25.6281 27.1538 25.5299 27.1538 25.4103V11.9716L16.0002 18.5486Z" fill="#1D1D1D"/>
</g>
</g>
</svg>
