<svg width="41" height="41" viewBox="0 0 41 41" fill="none" xmlns="http://www.w3.org/2000/svg">
<mask id="mask0_734_603" style="mask-type:alpha" maskUnits="userSpaceOnUse" x="0" y="0" width="41" height="41">
<rect x="0.5" y="0.5" width="40" height="40" fill="#D9D9D9"/>
</mask>
<g mask="url(#mask0_734_603)">
<path d="M20.4998 3.1604L35.4132 12.0579C35.7573 12.2543 35.9966 12.5165 36.1311 12.8446C36.2658 13.1726 36.3332 13.4926 36.3332 13.8046V32.2629C36.3332 32.9165 36.0959 33.4805 35.6215 33.955C35.1471 34.4294 34.583 34.6667 33.9294 34.6667H7.07025C6.41664 34.6667 5.85261 34.4294 5.37817 33.955C4.90373 33.4805 4.6665 32.9165 4.6665 32.2629V13.8046C4.6665 13.4926 4.73817 13.1726 4.8815 12.8446C5.02456 12.5165 5.25956 12.2543 5.5865 12.0579L20.4998 3.1604ZM20.4998 21.5833L34.2273 13.5033L20.4998 5.2629L6.77234 13.5033L20.4998 21.5833ZM20.4998 23.6858L6.55775 15.4646V32.2629C6.55775 32.4123 6.60581 32.5351 6.70192 32.6312C6.79803 32.7273 6.92081 32.7754 7.07025 32.7754H33.9294C34.0789 32.7754 34.2016 32.7273 34.2978 32.6312C34.3939 32.5351 34.4419 32.4123 34.4419 32.2629V15.4646L20.4998 23.6858Z" fill="white"/>
</g>
</svg>
