<svg width="24" height="24" viewBox="0 0 24 24" fill="none" xmlns="http://www.w3.org/2000/svg">
<mask id="mask0_445_1416" style="mask-type:alpha" maskUnits="userSpaceOnUse" x="0" y="0" width="24" height="24">
<rect width="24" height="24" fill="#D9D9D9"/>
</mask>
<g mask="url(#mask0_445_1416)">
<path d="M12 20.3115L11.2058 19.5885C9.48792 18.0147 8.069 16.66 6.949 15.5245C5.82917 14.389 4.93883 13.3812 4.278 12.501C3.617 11.6208 3.15542 10.826 2.89325 10.1165C2.63108 9.40717 2.5 8.69592 2.5 7.98275C2.5 6.61108 2.9625 5.46275 3.8875 4.53775C4.8125 3.61259 5.95575 3.15 7.31725 3.15C8.24808 3.15 9.11125 3.38467 9.90675 3.854C10.7022 4.32317 11.4 5.00517 12 5.9C12.6743 4.968 13.3979 4.27667 14.1708 3.826C14.9436 3.37533 15.7809 3.15 16.6827 3.15C18.0442 3.15 19.1875 3.61259 20.1125 4.53775C21.0375 5.46275 21.5 6.61108 21.5 7.98275C21.5 8.69592 21.3689 9.40717 21.1068 10.1165C20.8446 10.826 20.3834 11.6202 19.7232 12.499C19.0631 13.3777 18.1727 14.3854 17.052 15.5223C15.9313 16.6593 14.5121 18.0147 12.7942 19.5885L12 20.3115ZM12 18.8078C13.662 17.2863 15.0297 15.9823 16.103 14.8958C17.1763 13.8091 18.0291 12.8583 18.6613 12.0435C19.2934 11.2287 19.7355 10.5042 19.9875 9.87C20.2393 9.236 20.3652 8.60809 20.3652 7.98625C20.3652 6.91592 20.0185 6.03142 19.325 5.33275C18.6313 4.63408 17.7524 4.28475 16.6883 4.28475C15.8359 4.28475 15.0523 4.53917 14.3375 5.048C13.6228 5.557 12.9987 6.30892 12.4653 7.30375H11.5192C10.9897 6.31925 10.3677 5.56992 9.653 5.05575C8.93833 4.54175 8.15792 4.28475 7.31175 4.28475C6.25392 4.28475 5.37658 4.63408 4.67975 5.33275C3.98308 6.03142 3.63475 6.91842 3.63475 7.99375C3.63475 8.61458 3.76117 9.24375 4.014 9.88125C4.267 10.5186 4.70742 11.2468 5.33525 12.0658C5.96308 12.8848 6.819 13.8346 7.903 14.9153C8.98683 15.9961 10.3525 17.2936 12 18.8078Z" fill="#1D1D1D"/>
</g>
</svg>
