<svg width="48" height="49" viewBox="0 0 48 49" fill="none" xmlns="http://www.w3.org/2000/svg">
<mask id="mask0_31_379" style="mask-type:alpha" maskUnits="userSpaceOnUse" x="0" y="0" width="48" height="49">
<rect y="0.5" width="48" height="48" fill="#D9D9D9"/>
</mask>
<g mask="url(#mask0_31_379)">
<path d="M24 41.123L22.4115 39.677C18.9678 36.5333 16.1282 33.825 13.8925 31.552C11.6565 29.279 9.87767 27.2623 8.556 25.502C7.234 23.7417 6.31083 22.1532 5.7865 20.7365C5.26217 19.3198 5 17.8962 5 16.4655C5 13.7218 5.925 11.425 7.775 9.57499C9.625 7.72499 11.9115 6.79999 14.6345 6.79999C16.4962 6.79999 18.2225 7.26932 19.8135 8.20799C21.4045 9.14632 22.8 10.5103 24 12.3C25.3487 10.436 26.7967 9.05332 28.344 8.15199C29.8917 7.25065 31.5655 6.79999 33.3655 6.79999C36.0885 6.79999 38.375 7.72499 40.225 9.57499C42.075 11.425 43 13.7218 43 16.4655C43 17.8962 42.7378 19.3198 42.2135 20.7365C41.6892 22.1532 40.766 23.7417 39.444 25.502C38.1223 27.2623 36.3435 29.279 34.1075 31.552C31.8718 33.825 29.0322 36.5333 25.5885 39.677L24 41.123Z" fill="#CC1501"/>
</g>
</svg>
