<svg width="32" height="32" viewBox="0 0 32 32" fill="none" xmlns="http://www.w3.org/2000/svg">
<g id="inventory">
<mask id="mask0_576_92" style="mask-type:alpha" maskUnits="userSpaceOnUse" x="0" y="0" width="32" height="32">
<rect id="Bounding box" width="32" height="32" fill="#D9D9D9"/>
</mask>
<g mask="url(#mask0_576_92)">
<path id="inventory_2" d="M20.6665 26.1869L15.7048 21.2256L16.7922 20.1383L20.6665 24.0129L28.5435 16.1359L29.6305 17.2229L20.6665 26.1869ZM27.3332 13.0153H25.8202V6.58961C25.8202 6.48717 25.7775 6.39317 25.6922 6.30761C25.6066 6.22228 25.5126 6.17961 25.4102 6.17961H22.9742V8.93595H9.0255V6.17961H6.5895C6.48706 6.17961 6.39306 6.22228 6.3075 6.30761C6.22217 6.39317 6.1795 6.48717 6.1795 6.58961V25.4103C6.1795 25.5127 6.22217 25.6067 6.3075 25.6923C6.39306 25.7776 6.48706 25.8203 6.5895 25.8203H14.4435V27.3333H6.5895C6.0375 27.3333 5.57895 27.1508 5.21384 26.7859C4.84895 26.4208 4.6665 25.9623 4.6665 25.4103V6.58961C4.6665 6.03761 4.84895 5.57906 5.21384 5.21394C5.57895 4.84906 6.0375 4.66661 6.5895 4.66661H13.3228C13.4357 4.01706 13.7422 3.47861 14.2422 3.05128C14.7422 2.62394 15.3281 2.41028 15.9998 2.41028C16.6758 2.41028 17.2628 2.62394 17.7608 3.05128C18.2586 3.47861 18.5639 4.01706 18.6768 4.66661H25.4102C25.9622 4.66661 26.4207 4.84906 26.7858 5.21394C27.1507 5.57906 27.3332 6.03761 27.3332 6.58961V13.0153ZM15.9998 6.33328C16.3434 6.33328 16.6302 6.21828 16.8602 5.98828C17.0899 5.7585 17.2048 5.47183 17.2048 5.12828C17.2048 4.78472 17.0899 4.49794 16.8602 4.26794C16.6302 4.03794 16.3434 3.92295 15.9998 3.92295C15.6563 3.92295 15.3695 4.03794 15.1395 4.26794C14.9097 4.49794 14.7948 4.78472 14.7948 5.12828C14.7948 5.47183 14.9097 5.7585 15.1395 5.98828C15.3695 6.21828 15.6563 6.33328 15.9998 6.33328Z" fill="#1D1D1D"/>
</g>
</g>
</svg>
