<svg width="40" height="41" viewBox="0 0 40 41" fill="none" xmlns="http://www.w3.org/2000/svg">
<mask id="mask0_734_426" style="mask-type:alpha" maskUnits="userSpaceOnUse" x="0" y="0" width="40" height="41">
<rect y="0.5" width="40" height="40" fill="#D9D9D9"/>
</mask>
<g mask="url(#mask0_734_426)">
<path d="M19.9998 36.3334C17.1837 36.3334 14.8825 35.9533 13.0961 35.193C11.3097 34.433 10.4165 33.467 10.4165 32.2951C10.4165 31.669 10.7253 31.0642 11.3428 30.4809C11.9603 29.8976 12.8032 29.419 13.8715 29.0451L15.2978 30.298C14.7208 30.4691 14.1472 30.7474 13.5769 31.133C13.0064 31.5188 12.5693 31.9008 12.2657 32.2788C12.6312 32.8558 13.5597 33.3606 15.0511 33.7934C16.5425 34.2259 18.1894 34.4422 19.9919 34.4422C21.7941 34.4422 23.448 34.2259 24.9536 33.7934C26.4589 33.3606 27.3941 32.8558 27.7594 32.2788C27.4775 31.8836 27.018 31.4973 26.3811 31.1201C25.7444 30.7431 25.1376 30.4745 24.5607 30.3142L26.0128 29.0451C27.1472 29.419 28.026 29.8949 28.649 30.473C29.2718 31.0508 29.5832 31.6556 29.5832 32.2876C29.5832 33.4617 28.69 34.4295 26.9036 35.1909C25.1172 35.9526 22.8159 36.3334 19.9998 36.3334ZM20.0415 28.9617C23.0159 26.7117 25.243 24.4633 26.7228 22.2163C28.2022 19.9697 28.9419 17.857 28.9419 15.8784C28.9419 12.7998 27.98 10.4767 26.0561 8.90925C24.1319 7.34175 22.1158 6.558 20.0078 6.558C17.9169 6.558 15.9025 7.34203 13.9644 8.91008C12.0266 10.4784 11.0578 12.8027 11.0578 15.883C11.0578 17.8969 11.8029 19.9851 13.2932 22.1476C14.7834 24.3098 17.0329 26.5812 20.0415 28.9617ZM19.9998 31.3334C16.3907 28.6142 13.6829 25.9734 11.8765 23.4109C10.0698 20.8487 9.1665 18.3387 9.1665 15.8809C9.1665 14.0245 9.49664 12.3987 10.1569 11.0034C10.8172 9.60814 11.6671 8.4398 12.7065 7.49842C13.7462 6.5573 14.9062 5.85008 16.1865 5.37675C17.4671 4.90341 18.739 4.66675 20.0023 4.66675C21.2657 4.66675 22.5409 4.90341 23.8282 5.37675C25.1157 5.85008 26.2776 6.5573 27.314 7.49842C28.3501 8.4398 29.1957 9.60855 29.8507 11.0047C30.5057 12.4008 30.8332 14.0254 30.8332 15.8784C30.8332 18.3365 29.9368 20.8469 28.144 23.4097C26.3515 25.9724 23.6368 28.6137 19.9998 31.3334ZM20.0078 18.6572C20.8336 18.6572 21.5408 18.3655 22.1294 17.7822C22.7183 17.1988 23.0128 16.4888 23.0128 15.6522C23.0128 14.8158 22.7178 14.1033 22.1278 13.5147C21.5378 12.9258 20.8284 12.6313 19.9998 12.6313C19.1793 12.6313 18.4721 12.9263 17.8782 13.5163C17.284 14.1066 16.9869 14.8159 16.9869 15.6442C16.9869 16.4862 17.284 17.1988 17.8782 17.7822C18.4721 18.3655 19.1819 18.6572 20.0078 18.6572Z" fill="white"/>
</g>
</svg>
