<svg width="160" height="160" viewBox="0 0 160 160" fill="none" xmlns="http://www.w3.org/2000/svg">
<path d="M34.5397 63.559C32.8168 62.3746 30.5686 61.7809 27.7951 61.7809H17.0574C16.2072 61.7809 15.7374 62.2062 15.6482 63.0556L11.2862 90.4361C11.2408 90.705 11.3081 90.951 11.4874 91.1746C11.6656 91.3988 11.8898 91.5102 12.1584 91.5102H17.2587C18.1532 91.5102 18.6449 91.086 18.7352 90.2351L19.943 82.8536C19.9871 82.4958 20.1444 82.2049 20.4129 81.9809C20.6812 81.7574 21.0168 81.6109 21.4195 81.544C21.8222 81.4776 22.2018 81.4441 22.5604 81.4441C22.9179 81.4441 23.3428 81.4667 23.8357 81.5112C24.3274 81.5559 24.6408 81.5777 24.7752 81.5777C28.6226 81.5777 31.6425 80.4936 33.8351 78.3231C36.0267 76.1535 37.1237 73.1448 37.1237 69.2966C37.1237 66.657 36.2617 64.7444 34.5397 63.5582V63.559ZM29.0033 71.7805C28.7789 73.3467 28.1979 74.3752 27.2585 74.8675C26.3188 75.3604 24.9766 75.6054 23.232 75.6054L21.0172 75.6726L22.1584 68.4917C22.2474 68 22.5381 67.7539 23.0306 67.7539H24.3061C26.0948 67.7539 27.393 68.0117 28.1984 68.5254C29.0033 69.0402 29.2718 70.1258 29.0033 71.7805Z" fill="#003087"/>
<path d="M147.855 61.7805H142.889C142.396 61.7805 142.105 62.0267 142.017 62.5188L137.654 90.4367L137.587 90.5709C137.587 90.7957 137.677 91.0072 137.856 91.2086C138.034 91.4094 138.258 91.5104 138.527 91.5104H142.957C143.805 91.5104 144.275 91.0862 144.366 90.2355L148.728 62.7873V62.7206C148.728 62.0944 148.436 61.7811 147.855 61.7811V61.7805Z" fill="#009CDE"/>
<path d="M87.8583 72.5866C87.8583 72.3635 87.7685 72.1505 87.5904 71.9495C87.4109 71.7483 87.2095 71.6472 86.9863 71.6472H81.8189C81.3258 71.6472 80.9233 71.872 80.6107 72.3181L73.4971 82.7879L70.5445 72.7212C70.3197 72.0057 69.828 71.6472 69.068 71.6472H64.0341C63.8099 71.6472 63.6085 71.7481 63.4306 71.9495C63.2511 72.1505 63.1621 72.3637 63.1621 72.5866C63.1621 72.6769 63.5984 73.9961 64.4706 76.5462C65.3428 79.0968 66.2825 81.8484 67.2893 84.8014C68.2961 87.754 68.8212 89.3206 68.8663 89.4984C65.1974 94.5097 63.3636 97.1944 63.3636 97.5518C63.3636 98.1339 63.6542 98.4244 64.236 98.4244H69.4033C69.8954 98.4244 70.2979 98.2012 70.6115 97.7534L87.7248 73.056C87.8136 72.9672 87.8583 72.8113 87.8583 72.5864V72.5866Z" fill="#003087"/>
<path d="M135.978 71.6472H130.877C130.25 71.6472 129.871 72.3855 129.737 73.862C128.572 72.0732 126.448 71.1772 123.361 71.1772C120.139 71.1772 117.399 72.3855 115.14 74.8015C112.88 77.2177 111.751 80.0591 111.751 83.3247C111.751 85.9649 112.522 88.0675 114.066 89.6328C115.609 91.1998 117.678 91.9818 120.274 91.9818C121.571 91.9818 122.891 91.7128 124.233 91.1764C125.576 90.6396 126.626 89.9241 127.388 89.0289C127.388 89.0739 127.342 89.2747 127.254 89.6324C127.164 89.991 127.119 90.2601 127.119 90.4378C127.119 91.1545 127.409 91.5114 127.992 91.5114H132.623C133.472 91.5114 133.965 91.0872 134.098 90.2363L136.85 72.7206C136.894 72.4521 136.828 72.2064 136.649 71.9824C136.469 71.7594 136.246 71.6472 135.978 71.6472ZM127.22 84.8681C126.079 85.9867 124.703 86.5459 123.093 86.5459C121.795 86.5459 120.744 86.1885 119.938 85.4722C119.133 84.7578 118.73 83.7734 118.73 82.5192C118.73 80.865 119.289 79.4661 120.408 78.3251C121.525 77.1842 122.914 76.6138 124.569 76.6138C125.821 76.6138 126.861 76.983 127.689 77.7208C128.517 78.4591 128.931 79.4773 128.931 80.7748C128.931 82.3852 128.361 83.7502 127.22 84.8681Z" fill="#009CDE"/>
<path d="M59.7398 71.6472H54.6395C54.0122 71.6472 53.6327 72.3855 53.4983 73.862C52.2903 72.0732 50.165 71.1772 47.1227 71.1772C43.9014 71.1772 41.1607 72.3855 38.9016 74.8015C36.6419 77.2177 35.5127 80.0591 35.5127 83.3247C35.5127 85.9649 36.2846 88.0675 37.8282 89.6328C39.3718 91.1998 41.4405 91.9818 44.0358 91.9818C45.2879 91.9818 46.5861 91.7128 47.9281 91.1764C49.2702 90.6396 50.3441 89.9241 51.1494 89.0289C50.9699 89.5656 50.8809 90.0355 50.8809 90.4378C50.8809 91.1545 51.1716 91.5114 51.7533 91.5114H56.3839C57.2333 91.5114 57.726 91.0872 57.8604 90.2363L60.6118 72.7206C60.6559 72.4521 60.5888 72.2064 60.4105 71.9824C60.2315 71.7594 60.0081 71.6472 59.7398 71.6472ZM50.9818 84.9014C49.8407 85.999 48.4419 86.5459 46.7876 86.5459C45.4893 86.5459 44.4491 86.1885 43.6667 85.4722C42.8834 84.7578 42.4922 83.7734 42.4922 82.5192C42.4922 80.865 43.0512 79.4661 44.1701 78.3251C45.2879 77.1842 46.675 76.6138 48.331 76.6138C49.5831 76.6138 50.6233 76.983 51.4518 77.721C52.2789 78.4593 52.6932 79.4776 52.6932 80.775C52.6932 82.4302 52.1227 83.8064 50.9818 84.9014Z" fill="#003087"/>
<path d="M110.777 63.559C109.055 62.3746 106.807 61.7809 104.033 61.7809H93.362C92.4669 61.7809 91.9743 62.2062 91.8857 63.0556L87.5235 90.4361C87.4781 90.7053 87.5452 90.9512 87.7247 91.1748C87.9021 91.3988 88.1272 91.5102 88.3957 91.5102H93.8985C94.4353 91.5102 94.793 91.2197 94.9723 90.638L96.1805 82.8536C96.2248 82.4958 96.3815 82.2049 96.6502 81.9809C96.9188 81.7574 97.2539 81.6111 97.657 81.544C98.0595 81.4776 98.439 81.4441 98.7979 81.4441C99.1555 81.4441 99.5803 81.4667 100.073 81.5112C100.565 81.5559 100.879 81.5777 101.012 81.5777C104.86 81.5777 107.88 80.4936 110.072 78.3231C112.265 76.1535 113.361 73.1448 113.361 69.2966C113.361 66.6573 112.499 64.7446 110.777 63.5584V63.559ZM103.898 74.599C102.914 75.27 101.438 75.6054 99.4693 75.6054L97.3216 75.6726L98.4626 68.4917C98.5512 68 98.8418 67.7539 99.3348 67.7539H100.542C101.527 67.7539 102.309 67.7986 102.892 67.8878C103.473 67.9781 104.033 68.2568 104.57 68.7266C105.107 69.1965 105.375 69.879 105.375 70.7738C105.375 72.6527 104.882 73.9276 103.898 74.599Z" fill="#009CDE"/>
</svg>
