<svg width="40" height="41" viewBox="0 0 40 41" fill="none" xmlns="http://www.w3.org/2000/svg">
<mask id="mask0_734_810" style="mask-type:alpha" maskUnits="userSpaceOnUse" x="0" y="0" width="40" height="41">
<rect y="0.5" width="40" height="40" fill="#D9D9D9"/>
</mask>
<g mask="url(#mask0_734_810)">
<path d="M11.5703 38C10.9166 38 10.3526 37.7628 9.87817 37.2883C9.40373 36.8139 9.1665 36.2499 9.1665 35.5962V5.40375C9.1665 4.75014 9.40373 4.18611 9.87817 3.71167C10.3526 3.23722 10.9166 3 11.5703 3H28.4294C29.083 3 29.6471 3.23722 30.1215 3.71167C30.5959 4.18611 30.8332 4.75014 30.8332 5.40375V35.5962C30.8332 36.2499 30.5959 36.8139 30.1215 37.2883C29.6471 37.7628 29.083 38 28.4294 38H11.5703ZM11.0578 34.33V35.5962C11.0578 35.7243 11.1111 35.8418 11.2178 35.9487C11.3247 36.0554 11.4422 36.1087 11.5703 36.1087H28.4294C28.5575 36.1087 28.675 36.0554 28.7819 35.9487C28.8886 35.8418 28.9419 35.7243 28.9419 35.5962V34.33H11.0578ZM11.0578 32.4392H28.9419V8.56083H11.0578V32.4392ZM11.0578 6.67H28.9419V5.40375C28.9419 5.27569 28.8886 5.15819 28.7819 5.05125C28.675 4.94458 28.5575 4.89125 28.4294 4.89125H11.5703C11.4422 4.89125 11.3247 4.94458 11.2178 5.05125C11.1111 5.15819 11.0578 5.27569 11.0578 5.40375V6.67Z" fill="white"/>
</g>
</svg>
