<svg width="32" height="32" viewBox="0 0 32 32" fill="none" xmlns="http://www.w3.org/2000/svg">
<g id="receipt_long">
<mask id="mask0_216_2042" style="mask-type:alpha" maskUnits="userSpaceOnUse" x="0" y="0" width="32" height="32">
<rect id="Bounding box" width="32" height="32" fill="#D9D9D9"/>
</mask>
<g mask="url(#mask0_216_2042)">
<path id="receipt_long_2" d="M7.56662 28.6667C6.73973 28.6667 6.03728 28.3777 5.45928 27.7997C4.88128 27.2217 4.59229 26.5213 4.59229 25.6984V22.2437H8.76162V3.58972L10.6036 5.17972L12.4713 3.58972L14.339 5.17972L16.2066 3.58972L18.0743 5.17972L19.946 3.58972L21.8179 5.17972L23.6896 3.58972L25.5613 5.17972L27.4076 3.58972V25.6924C27.4076 26.5193 27.1186 27.2217 26.5406 27.7997C25.9626 28.3777 25.2602 28.6667 24.4333 28.6667H7.56662ZM24.4396 27.1537C24.8627 27.1537 25.2111 27.0171 25.4846 26.7437C25.7582 26.4702 25.8949 26.1197 25.8949 25.6924V6.17972H10.2743V22.2437H22.9846V25.6924C22.9846 26.1197 23.1214 26.4702 23.3949 26.7437C23.6683 27.0171 24.0165 27.1537 24.4396 27.1537ZM12.182 11.1257V9.61306H19.746V11.1257H12.182ZM12.182 15.4771V13.9641H19.746V15.4771H12.182ZM22.8333 11.3051C22.5837 11.3051 22.3654 11.2115 22.1783 11.0244C21.9909 10.8373 21.8973 10.6189 21.8973 10.3694C21.8973 10.1198 21.9909 9.90139 22.1783 9.71406C22.3654 9.52694 22.5837 9.43339 22.8333 9.43339C23.0828 9.43339 23.3012 9.52694 23.4883 9.71406C23.6756 9.90139 23.7693 10.1198 23.7693 10.3694C23.7693 10.6189 23.6756 10.8373 23.4883 11.0244C23.3012 11.2115 23.0828 11.3051 22.8333 11.3051ZM22.8333 15.5284C22.5837 15.5284 22.3654 15.4347 22.1783 15.2474C21.9909 15.0603 21.8973 14.8419 21.8973 14.5924C21.8973 14.3428 21.9909 14.1245 22.1783 13.9374C22.3654 13.7501 22.5837 13.6564 22.8333 13.6564C23.0828 13.6564 23.3012 13.7501 23.4883 13.9374C23.6756 14.1245 23.7693 14.3428 23.7693 14.5924C23.7693 14.8419 23.6756 15.0603 23.4883 15.2474C23.3012 15.4347 23.0828 15.5284 22.8333 15.5284ZM7.53695 27.1537H21.4716V23.7564H6.10495V25.6924C6.10495 26.1197 6.2434 26.4702 6.52029 26.7437C6.79717 27.0171 7.13606 27.1537 7.53695 27.1537Z" fill="#959292"/>
</g>
</g>
</svg>
