<svg width="32" height="32" viewBox="0 0 32 32" fill="none" xmlns="http://www.w3.org/2000/svg">
<mask id="mask0_56_868" style="mask-type:alpha" maskUnits="userSpaceOnUse" x="0" y="0" width="32" height="32">
<rect width="32" height="32" fill="#D9D9D9"/>
</mask>
<g mask="url(#mask0_56_868)">
<path d="M9.61808 16.7027H22.3821C22.589 16.7027 22.7667 16.6282 22.9154 16.4794C23.0641 16.3307 23.1384 16.1551 23.1384 15.9527C23.1384 15.75 23.0641 15.5722 22.9154 15.4194C22.7667 15.2662 22.589 15.1897 22.3821 15.1897H9.61808C9.41119 15.1897 9.23341 15.2662 9.08475 15.4194C8.93608 15.5725 8.86175 15.748 8.86175 15.946C8.86175 16.1529 8.93608 16.3307 9.08475 16.4794C9.23341 16.6282 9.41119 16.7027 9.61808 16.7027ZM6.58975 27.3334C6.06686 27.3334 5.61564 27.1436 5.23608 26.764C4.85653 26.3845 4.66675 25.9332 4.66675 25.4104V6.58969C4.66675 6.0668 4.85653 5.61558 5.23608 5.23602C5.61564 4.85647 6.06686 4.66669 6.58975 4.66669H25.4104C25.9333 4.66669 26.3845 4.85647 26.7641 5.23602C27.1436 5.61558 27.3334 6.0668 27.3334 6.58969V25.4104C27.3334 25.9332 27.1436 26.3845 26.7641 26.764C26.3845 27.1436 25.9333 27.3334 25.4104 27.3334H6.58975ZM6.58975 25.8204H25.4104C25.5129 25.8204 25.6069 25.7777 25.6924 25.6924C25.7777 25.6068 25.8204 25.5128 25.8204 25.4104V6.58969C25.8204 6.48724 25.7777 6.39324 25.6924 6.30769C25.6069 6.22235 25.5129 6.17969 25.4104 6.17969H6.58975C6.4873 6.17969 6.3933 6.22235 6.30775 6.30769C6.22241 6.39324 6.17975 6.48724 6.17975 6.58969V25.4104C6.17975 25.5128 6.22241 25.6068 6.30775 25.6924C6.3933 25.7777 6.4873 25.8204 6.58975 25.8204Z" fill="#1D1D1D"/>
</g>
</svg>
