<svg width="32" height="32" viewBox="0 0 32 32" fill="none" xmlns="http://www.w3.org/2000/svg">
<g id="restock">
<mask id="mask0_216_2159" style="mask-type:alpha" maskUnits="userSpaceOnUse" x="0" y="0" width="32" height="32">
<rect id="Bounding box" width="32" height="32" fill="#D9D9D9"/>
</mask>
<g mask="url(#mask0_216_2159)">
<path id="orders" d="M6.09499 26V10.113L3.52832 4.55395L4.94632 3.87195L7.70265 10.0873H24.318L27.0743 3.87195L28.4923 4.55395L25.9257 10.113V26H6.09499ZM13.2383 16.5869H18.8153C19.0298 16.5869 19.2094 16.5138 19.3543 16.3676C19.4992 16.2214 19.5717 16.0403 19.5717 15.8243C19.5717 15.6081 19.4992 15.4291 19.3543 15.2873C19.2094 15.1453 19.0298 15.0743 18.8153 15.0743H13.2383C13.0241 15.0743 12.8445 15.1474 12.6997 15.2936C12.5545 15.4398 12.482 15.6211 12.482 15.8373C12.482 16.0535 12.5545 16.2325 12.6997 16.3743C12.8445 16.5161 13.0241 16.5869 13.2383 16.5869ZM7.60765 24.4869H24.4127V11.5999H7.60765V24.4869Z" fill="#959292"/>
</g>
</g>
</svg>
