<svg width="24" height="25" viewBox="0 0 24 25" fill="none" xmlns="http://www.w3.org/2000/svg">
<mask id="mask0_130_205" style="mask-type:alpha" maskUnits="userSpaceOnUse" x="0" y="0" width="24" height="25">
<rect y="0.5" width="24" height="24" fill="#D9D9D9"/>
</mask>
<g mask="url(#mask0_130_205)">
<path d="M19.7652 21.0615L13.277 14.573C12.7795 15.0133 12.1994 15.3526 11.5367 15.5908C10.8741 15.8289 10.1881 15.948 9.47874 15.948C7.78091 15.948 6.34399 15.3604 5.16799 14.1853C3.99199 13.0099 3.40399 11.5849 3.40399 9.91025C3.40399 8.23542 3.99157 6.80992 5.16674 5.63375C6.34191 4.45742 7.76874 3.86925 9.44724 3.86925C11.1256 3.86925 12.5527 4.457 13.7285 5.6325C14.9043 6.808 15.4922 8.2335 15.4922 9.909C15.4922 10.6093 15.3724 11.2913 15.1327 11.9548C14.8929 12.6183 14.5461 13.2193 14.0922 13.7578L20.596 20.2213L19.7652 21.0615ZM9.46349 14.8135C10.8293 14.8135 11.9865 14.3375 12.935 13.3855C13.8835 12.4337 14.3577 11.2747 14.3577 9.90875C14.3577 8.54258 13.8835 7.38358 12.935 6.43175C11.9865 5.47975 10.8293 5.00375 9.46349 5.00375C8.08899 5.00375 6.92449 5.47975 5.96999 6.43175C5.01566 7.38358 4.53849 8.54258 4.53849 9.90875C4.53849 11.2747 5.01566 12.4337 5.96999 13.3855C6.92449 14.3375 8.08899 14.8135 9.46349 14.8135Z" fill="#1D1D1D"/>
</g>
</svg>
