<svg width="32" height="32" viewBox="0 0 32 32" fill="none" xmlns="http://www.w3.org/2000/svg">
<g id="settings_icon">
<mask id="mask0_216_2436" style="mask-type:alpha" maskUnits="userSpaceOnUse" x="0" y="0" width="32" height="32">
<rect id="Bounding box" width="32" height="32" fill="#D9D9D9"/>
</mask>
<g mask="url(#mask0_216_2436)">
<path id="settings" d="M13.3565 28.6667L12.7542 24.659C12.2978 24.5035 11.8063 24.2774 11.2799 23.9807C10.7532 23.6843 10.2993 23.3702 9.91821 23.0384L6.18988 24.736L3.52588 20.0257L6.89521 17.5464C6.85077 17.3122 6.81866 17.0565 6.79888 16.7794C6.77932 16.5025 6.76955 16.2469 6.76955 16.0127C6.76955 15.7872 6.77932 15.5359 6.79888 15.259C6.81866 14.9822 6.85077 14.7137 6.89521 14.4537L3.52588 11.9617L6.18988 7.28971L9.90521 8.96171C10.3121 8.62993 10.7703 8.31793 11.2799 8.02571C11.7892 7.73349 12.2763 7.51637 12.7412 7.37437L13.3565 3.33337H18.6439L19.2462 7.35404C19.7369 7.53515 20.2275 7.75993 20.7182 8.02837C21.2087 8.2966 21.6505 8.60771 22.0439 8.96171L25.8232 7.28971L28.4745 11.9617L25.0539 14.4384C25.1154 14.7035 25.154 14.9702 25.1695 15.2384C25.1849 15.5068 25.1925 15.7607 25.1925 16C25.1925 16.2307 25.1827 16.4768 25.1629 16.7384C25.1433 16.9999 25.107 17.2718 25.0539 17.554L28.4615 20.0257L25.7975 24.736L22.0439 23.0257C21.6283 23.3744 21.18 23.6961 20.6989 23.991C20.2178 24.2859 19.7335 24.5043 19.2462 24.646L18.6439 28.6667H13.3565ZM14.5719 27.1537H17.4155L17.8952 23.4334C18.6028 23.2556 19.263 22.9906 19.8759 22.6384C20.4888 22.2864 21.0747 21.8394 21.6335 21.2974L25.1155 22.805L26.4489 20.4437L23.3669 18.1694C23.4558 17.7745 23.5259 17.4023 23.5772 17.0527C23.6283 16.7032 23.6539 16.3523 23.6539 16C23.6539 15.6307 23.6317 15.2756 23.5872 14.9347C23.5428 14.5936 23.4693 14.2342 23.3669 13.8564L26.4745 11.5564L25.1412 9.19504L21.6205 10.7027C21.1523 10.1763 20.5874 9.71215 19.9259 9.31037C19.2643 8.9086 18.5831 8.66071 17.8822 8.56671L17.4285 4.84637H14.5719L14.1309 8.55404C13.3924 8.70093 12.7125 8.9526 12.0912 9.30904C11.4699 9.66549 10.8909 10.1257 10.3542 10.6897L6.85921 9.19504L5.52588 11.5564L8.60788 13.818C8.51055 14.17 8.43621 14.5273 8.38488 14.8897C8.33355 15.2522 8.30788 15.6265 8.30788 16.0127C8.30788 16.382 8.33355 16.7436 8.38488 17.0974C8.43621 17.4514 8.50632 17.8087 8.59521 18.1694L5.52588 20.4437L6.85921 22.805L10.3412 21.3104C10.8745 21.8521 11.454 22.2992 12.0795 22.6514C12.7053 23.0034 13.3849 23.2683 14.1182 23.446L14.5719 27.1537ZM15.9619 19.7564C17.0079 19.7564 17.8954 19.3918 18.6245 18.6627C19.3537 17.9338 19.7182 17.0463 19.7182 16C19.7182 14.9538 19.3537 14.0663 18.6245 13.3374C17.8954 12.6083 17.0079 12.2437 15.9619 12.2437C14.9241 12.2437 14.0385 12.6083 13.3052 13.3374C12.5721 14.0663 12.2055 14.9538 12.2055 16C12.2055 17.0463 12.5721 17.9338 13.3052 18.6627C14.0385 19.3918 14.9241 19.7564 15.9619 19.7564Z" fill="#1D1D1D"/>
</g>
</g>
</svg>
