<svg width="64" height="64" viewBox="0 0 64 64" fill="none" xmlns="http://www.w3.org/2000/svg">
<mask id="mask0_182_2190" style="mask-type:alpha" maskUnits="userSpaceOnUse" x="0" y="0" width="64" height="64">
<rect width="64" height="64" fill="#D9D9D9"/>
</mask>
<g mask="url(#mask0_182_2190)">
<path d="M15.9906 48.2558C14.2004 48.2558 12.6817 47.6303 11.4346 46.3792C10.1875 45.1276 9.56392 43.6081 9.56392 41.8205H4.33325V18.1792C4.33325 17.2134 4.67725 16.3865 5.36525 15.6985C6.05325 15.0105 6.88014 14.6665 7.84592 14.6665H44.7333L59.6666 29.1898V41.8205H54.8459C54.8459 43.6081 54.2193 45.1276 52.9659 46.3792C51.713 47.6303 50.1913 48.2558 48.4006 48.2558C46.6104 48.2558 45.0917 47.6303 43.8446 46.3792C42.5979 45.1276 41.9746 43.6081 41.9746 41.8205H22.4359C22.4359 43.6085 21.8093 45.1281 20.5559 46.3792C19.3026 47.6303 17.7808 48.2558 15.9906 48.2558ZM38.9999 27.4358H53.2666L43.2153 17.6925H38.9999V27.4358ZM23.1793 27.4358H35.9746V17.6925H23.1793V27.4358ZM7.35925 27.4358H20.1539V17.6925H7.35925V27.4358ZM15.9893 45.6405C17.0564 45.6405 17.9617 45.2723 18.7053 44.5358C19.4488 43.7994 19.8206 42.8976 19.8206 41.8305C19.8206 40.7638 19.4521 39.8587 18.7153 39.1152C17.9788 38.3716 17.0773 37.9998 16.0106 37.9998C14.9435 37.9998 14.0381 38.3681 13.2946 39.1045C12.551 39.8414 12.1793 40.7432 12.1793 41.8098C12.1793 42.8765 12.5477 43.7816 13.2846 44.5252C14.021 45.2687 14.9226 45.6405 15.9893 45.6405ZM48.3999 45.6405C49.4666 45.6405 50.3717 45.2723 51.1152 44.5358C51.8588 43.7994 52.2306 42.8976 52.2306 41.8305C52.2306 40.7638 51.8624 39.8587 51.1259 39.1152C50.389 38.3716 49.4873 37.9998 48.4206 37.9998C47.3539 37.9998 46.4488 38.3681 45.7053 39.1045C44.9617 39.8414 44.5899 40.7432 44.5899 41.8098C44.5899 42.8765 44.9581 43.7816 45.6946 44.5252C46.431 45.2687 47.3328 45.6405 48.3999 45.6405ZM7.35925 38.7945H10.2613C10.8288 37.7247 11.645 36.8889 12.7099 36.2872C13.7753 35.6854 14.8719 35.3845 15.9999 35.3845C17.1284 35.3845 18.2121 35.6725 19.2513 36.2485C20.2904 36.8245 21.1279 37.6732 21.7639 38.7945H42.6813C43.2426 37.7416 44.0557 36.9101 45.1206 36.2998C46.1855 35.6896 47.2819 35.3845 48.4099 35.3845C49.5384 35.3845 50.6221 35.6767 51.6613 36.2612C52.7008 36.8461 53.5384 37.6905 54.1739 38.7945H56.6406V30.4612H7.35925V38.7945Z" fill="white"/>
</g>
</svg>
