<svg width="64" height="64" viewBox="0 0 64 64" fill="none" xmlns="http://www.w3.org/2000/svg">
<mask id="mask0_182_2221" style="mask-type:alpha" maskUnits="userSpaceOnUse" x="0" y="0" width="64" height="64">
<rect width="64" height="64" fill="#D9D9D9"/>
</mask>
<g mask="url(#mask0_182_2221)">
<path d="M48.2973 60.0002V51.9588H40.2973V48.9335H48.2973V40.9335H51.3226V48.9335H59.3226V51.9588H51.3226V60.0002H48.2973ZM8.13858 52.6255V35.8002H4.67725V32.7748L7.73858 19.3335H46.1026L49.2306 33.0055V35.8002H45.8099V46.4462H42.7846V35.8002H28.6666V52.6255H8.13858ZM11.1639 49.6002H25.6412V35.8002H11.1639V49.6002ZM7.73858 14.3588V11.3335H46.1432V14.3588H7.73858ZM7.70258 32.7748H46.2459L43.8719 22.3588H10.0766L7.70258 32.7748Z" fill="#1D1D1D"/>
</g>
</svg>
