<svg width="24" height="24" viewBox="0 0 24 24" fill="none" xmlns="http://www.w3.org/2000/svg">
<mask id="mask0_190_849" style="mask-type:alpha" maskUnits="userSpaceOnUse" x="0" y="0" width="24" height="24">
<rect width="24" height="24" fill="#D9D9D9"/>
</mask>
<g mask="url(#mask0_190_849)">
<path d="M7.2755 21.5422C6.82983 21.5422 6.453 21.3855 6.145 21.072C5.83683 20.7583 5.68275 20.3774 5.68275 19.9293C5.68275 19.4811 5.8385 19.102 6.15 18.792C6.46166 18.482 6.84025 18.327 7.28575 18.327C7.73108 18.327 8.10958 18.4838 8.42125 18.7973C8.73275 19.1108 8.8885 19.4917 8.8885 19.94C8.8885 20.3882 8.73175 20.7673 8.41825 21.0772C8.10458 21.3872 7.72366 21.5422 7.2755 21.5422ZM16.9677 21.5422C16.5222 21.5422 16.1454 21.3855 15.8372 21.072C15.5291 20.7583 15.375 20.3774 15.375 19.9293C15.375 19.4811 15.5308 19.102 15.8425 18.792C16.154 18.482 16.5325 18.327 16.978 18.327C17.4235 18.327 17.802 18.4838 18.1135 18.7973C18.425 19.1108 18.5807 19.4917 18.5807 19.94C18.5807 20.3882 18.424 20.7673 18.1105 21.0772C17.7968 21.3872 17.4159 21.5422 16.9677 21.5422ZM5.81725 5.36925L8.60575 11.1845H15.5652C15.6231 11.1845 15.676 11.1701 15.724 11.1413C15.7722 11.1124 15.809 11.0724 15.8345 11.0212L18.7962 5.6385C18.8346 5.568 18.8377 5.5055 18.8057 5.451C18.7737 5.3965 18.7192 5.36925 18.6422 5.36925H5.81725ZM5.2405 4.23475H19.1107C19.5192 4.23475 19.8282 4.41133 20.0377 4.7645C20.2471 5.11767 20.2517 5.47567 20.0517 5.8385L16.9785 11.4065C16.812 11.683 16.5985 11.9043 16.338 12.0703C16.0773 12.2363 15.7961 12.3193 15.4942 12.3193H8.1L6.71925 14.871C6.67441 14.948 6.67441 15.0314 6.71925 15.1212C6.76408 15.2109 6.83458 15.2557 6.93075 15.2557H18.5807V16.3903H7.098C6.4685 16.3903 6.01408 16.173 5.73475 15.7385C5.45525 15.3038 5.45775 14.8237 5.74225 14.298L7.352 11.3673L3.57125 3.3845H1.698V2.25H4.30575L5.2405 4.23475Z" fill="#1D1D1D"/>
</g>
</svg>
