<svg width="176" height="34" viewBox="0 0 176 34" fill="none" xmlns="http://www.w3.org/2000/svg">
<path d="M6.7075 33.365L9.573 21.0265L0 12.7305L12.6305 11.6345L17.5575 0L22.4845 11.6345L35.115 12.7305L25.542 21.0265L28.4075 33.365L17.5575 26.819L6.7075 33.365Z" fill="#ECECEC"/>
<path d="M41.8225 33.365L44.688 21.0265L35.115 12.7305L47.7455 11.6345L52.6725 0L57.5995 11.6345L70.23 12.7305L60.657 21.0265L63.5225 33.365L52.6725 26.819L41.8225 33.365Z" fill="#ECECEC"/>
<path d="M76.9375 33.365L79.803 21.0265L70.23 12.7305L82.8605 11.6345L87.7875 0L92.7145 11.6345L105.345 12.7305L95.772 21.0265L98.6375 33.365L87.7875 26.819L76.9375 33.365Z" fill="#ECECEC"/>
<path d="M112.052 33.365L114.918 21.0265L105.345 12.7305L117.975 11.6345L122.902 0L127.829 11.6345L140.46 12.7305L130.887 21.0265L133.752 33.365L122.902 26.819L112.052 33.365Z" fill="#ECECEC"/>
<path d="M147.167 33.365L150.033 21.0265L140.46 12.7305L153.09 11.6345L158.017 0L162.944 11.6345L175.575 12.7305L166.002 21.0265L168.867 33.365L158.017 26.819L147.167 33.365Z" fill="#ECECEC"/>
</svg>
