<svg width="160" height="160" viewBox="0 0 160 160" fill="none" xmlns="http://www.w3.org/2000/svg">
<g clip-path="url(#clip0_705_1193)">
<path d="M160 28.718H0V131.282H160V28.718Z" fill="#0E4595"/>
<path d="M60.1433 100.252L66.9866 60.0964H77.9322L71.084 100.252H60.1433ZM110.627 60.9621C108.459 60.1485 105.061 59.2755 100.818 59.2755C90.0024 59.2755 82.3839 64.7217 82.3193 72.5274C82.2579 78.2977 87.758 81.5165 91.9094 83.4374C96.1702 85.4056 97.6021 86.6607 97.582 88.4185C97.5552 91.11 94.1798 92.3397 91.0339 92.3397C86.653 92.3397 84.3256 91.7311 80.731 90.2318L79.3205 89.5939L77.7843 98.5832C80.3408 99.704 85.0684 100.675 89.9767 100.725C101.482 100.725 108.951 95.3416 109.036 87.006C109.077 82.438 106.161 78.9617 99.8465 76.0956C96.0208 74.2382 93.6778 72.9984 93.7027 71.1176C93.7027 69.4484 95.6858 67.6634 99.9708 67.6634C103.55 67.608 106.143 68.3885 108.163 69.2019L109.144 69.6655L110.627 60.9621ZM138.794 60.0958H130.336C127.716 60.0958 125.755 60.8111 124.604 63.4259L108.349 100.226H119.843C119.843 100.226 121.722 95.2776 122.147 94.1914C123.403 94.1914 134.568 94.2086 136.165 94.2086C136.492 95.6144 137.496 100.226 137.496 100.226H147.653L138.794 60.0946V60.0958ZM125.374 86.0261C126.279 83.7124 129.735 74.8008 129.735 74.8008C129.671 74.9079 130.634 72.4759 131.187 70.9682L131.926 74.4306C131.926 74.4306 134.022 84.016 134.46 86.0261H125.374ZM50.8514 60.0958L40.1355 87.4804L38.9935 81.9153C36.9987 75.5003 30.7833 68.5502 23.835 65.0706L33.6331 100.189L45.2138 100.175L62.4454 60.0954H50.8514" fill="white"/>
<path d="M30.1378 60.0943H12.4883L12.3486 60.9298C26.0795 64.2537 35.165 72.2863 38.9374 81.937L35.0994 63.4837C34.4368 60.9411 32.5154 60.1823 30.1382 60.0935" fill="#F2AE14"/>
</g>
<defs>
<clipPath id="clip0_705_1193">
<rect width="160" height="160" fill="white"/>
</clipPath>
</defs>
</svg>
